.
..............................Site Info...........................

 -   http://www.scenetime.com  *_*   

SceneTime is going to Close sign up on march/1, hurry up! get in before the doors are closed.

     We care to share . Join us on  http://www.scenetime.com 

    Be the first to get new release at  http://www.scenetime.com

        Seed back for speed


...................................NFO:.................................................                                                                                                     
       
     
     
       
       
     
     
                                         
                                         
                EXVID                    
                                         
         
                                         
         Filled the Archives             
                                         
         
                                         
                With:                    
                                         
         
                                         
                                    
     E240                           
                                    
     SP               (C) 2009      
                                         
     
     
     
                                                                                  
                                                                                   
                  My.Girl.1991.iNTERNAL.DVDRip.XviD-EXViDiNT                        
                                                                                   
                                                                                  
     
                                                                                               
EXViD aims to iNTERNAL those releases which have been lost in the archives.
EXViD aims to PRE non-internal releases which have poor sources and are likely skipped by others. 
http://www.imdb.com/title/tt0102492/
Subtitles: EN, FR, DE, IT, ES, NL, AR, BG, CS, DA, FI, EL, IW, HI, HU, IS, NO, PL, PT, SV, TR
Date: 2012.01

Director: Howard Zieff

Genres: Drama | Family | Romance

Plot:
Vada Sultenfuss is obsessed with death. Her mother is dead, and her father runs a funeral parlor.
She is also in love with her English teacher, and joins a poetry class over the summer just to
impress him. Thomas J., her best friend, is "allergic to everything", and sticks with Vada
despite her hangups. When Vada's father hires Shelly, a makeup expert, in his funeral parlor, and
begins to fall in love with her, Vada is outraged and does everything in her power to split them
up.

Cast:
Dan Aykroyd	...	Harry Sultenfuss
Jamie Lee Curtis	...	Shelly DeVoto
Macaulay Culkin	...	Thomas J. Sennett
Anna Chlumsky	...	Vada Margaret Sultenfuss
Richard Masur	...	Phil Sultenfuss
Griffin Dunne	...	Mr. Jake Bixler
Ray Buktenica	...	Danny DeVoto
Ann Nelson	...	Gramoo Sultenfuss
Peter Michael Goetz	...	Dr. Welty
Jane Hallaren	...	Nurse Randall
Anthony R. Jones	...	Arthur
Tom Villard	...	Justin
Lara Steinick	...	Ronda
Kristian Truelsen	...	Charles
David Caprita	...	Ray

Stats:
Format                                   : AVI
Format/Info                              : Audio Video Interleave
File size                                : 702 MiB
Duration                                 : 1h 38mn
Overall bit rate mode                    : Variable
Overall bit rate                         : 1 001 Kbps

Video
ID                                       : 0
Format                                   : MPEG-4 Visual
Format profile                           : Advanced Simple@L5
Format settings, BVOP                    : 2
Format settings, QPel                    : No
Format settings, GMC                     : No warppoints
Format settings, Matrix                  : Default (H.263)
Codec ID                                 : XVID
Codec ID/Hint                            : XviD
Duration                                 : 1h 38mn
Bit rate                                 : 852 Kbps
Width                                    : 608 pixels
Height                                   : 336 pixels
Display aspect ratio                     : 16:9
Frame rate                               : 25.000 fps
Color space                              : YUV
Chroma subsampling                       : 4:2:0
Bit depth                                : 8 bits
Scan type                                : Progressive
Compression mode                         : Lossy
Bits/(Pixel*Frame)                       : 0.167
Stream size                              : 598 MiB (85%)
Writing library                          : XviD 64

Audio
ID                                       : 1
Format                                   : MPEG Audio
Format version                           : Version 1
Format profile                           : Layer 3
Mode                                     : Joint stereo
Mode extension                           : MS Stereo
Codec ID                                 : 55
Codec ID/Hint                            : MP3
Duration                                 : 1h 38mn
Bit rate mode                            : Variable
Bit rate                                 : 136 Kbps
Channel(s)                               : 2 channels
Sampling rate                            : 48.0 KHz
Compression mode                         : Lossy
Stream size                              : 95.4 MiB (14%)
Alignment                                : Aligned on interleaves
Interleave, duration                     : 24 ms (0.60 video frame)
Interleave, preload duration             : 118 ms
Writing library                          : LAME3.98.4



Release notes:
Enjoy!

Looking for:
75TB+ Archives
DUTCH/FLEMiSH Archives
                                                                                                    
Greets: CRBS EPiSODE FiCO FLS iLS KLASSiGER LiPSYNC MADE NODLABS RUNNER SPRiNTER      
   

                                                                    ASCII DONE BY XX^NFO 2oo9     
 

RLS-Crc: 415243414445:42EECD90